<svg xmlns="http://www.w3.org/2000/svg" viewBox="0 0 96 96" fill="none" role="img" aria-label="TabPFN Studio">
  <defs>
    <linearGradient id="bg" x1="12" y1="8" x2="86" y2="88" gradientUnits="userSpaceOnUse">
      <stop offset="0%" stop-color="#0f2230" />
      <stop offset="60%" stop-color="#157569" />
      <stop offset="100%" stop-color="#d7ff7d" />
    </linearGradient>
  </defs>
  <rect width="96" height="96" rx="24" fill="url(#bg)" />
  <rect x="18" y="20" width="60" height="44" rx="12" fill="#fffdf7" fill-opacity=".95" />
  <path d="M18 36h60M18 50h60M38 20v44M58 20v44" stroke="#0f2230" stroke-width="4" stroke-linecap="round" stroke-opacity=".15" />
  <path d="M28 54c6-9 12-13 18-13 5 0 9 3 13 3 4 0 7-3 9-8" stroke="#157569" stroke-width="6" stroke-linecap="round" stroke-linejoin="round" />
  <circle cx="67" cy="31" r="8" fill="#d7ff7d" />
  <path d="m67 25 1.6 4.4L73 31l-4.4 1.6L67 37l-1.6-4.4L61 31l4.4-1.6L67 25Z" fill="#0f2230" />
</svg>
